PathFileType	4	(X/Y/Z)	Walking07.trc	
DataRate	CameraRate	NumFrames	NumMarkers	Units	OrigDataRate	OrigDataStartFrame	OrigNumFrames	
100.00	100.00	6	19	mm	100.00	339	98	
Frame#	Time	RPSI			LPSI			RASI			LASI			RTHI			RKNE			RHFB			RTUB			RSHN			RANK			RLCA			RSTL			RPCA			RCPG			RHEE			RP5M			RP1M			RD5M			RTOE			
		X1	Y1	Z1	X2	Y2	Z2	X3	Y3	Z3	X4	Y4	Z4	X5	Y5	Z5	X6	Y6	Z6	X7	Y7	Z7	X8	Y8	Z8	X9	Y9	Z9	X10	Y10	Z10	X11	Y11	Z11	X12	Y12	Z12	X13	Y13	Z13	X14	Y14	Z14	X15	Y15	Z15	X16	Y16	Z16	X17	Y17	Z17	X18	Y18	Z18	X19	Y19	Z19	

1	0.000	-774.33612	883.67554	166.22453	-782.91693	898.79480	74.98605	-575.02563	843.56061	203.05118	-605.29089	837.40363	-36.98396	-570.28271	546.89429	243.57309	-507.00696	422.15195	210.09705	-495.48285	383.14670	209.57599				-424.48425	323.08786	145.92421	-411.94208	58.17461	174.03349	-416.00171	32.72273	167.91679	-403.94766	37.84553	103.10458	-444.61993	47.56295	130.48642	-464.26743	28.05835	129.36015	-439.28964	11.51657	124.56919	-317.57730	32.04131	196.51370	-312.00729	87.23656	121.40276	-285.57898	42.58912	203.52592	-259.63217	75.33860	165.06042 
2	0.010	-756.89948	882.84973	166.34705	-765.35999	897.59625	74.78439	-557.67267	843.48663	204.44632	-586.42249	836.91656	-35.23910	-550.71655	546.96783	243.90616	-490.38959	420.89066	210.17805	-479.91187	381.70956	209.93246				-409.27420	320.99615	144.34119	-405.41864	58.12593	173.63896	-411.61371	33.11602	167.61221	-400.29840	37.20604	102.70573	-440.13101	49.58924	130.79506	-460.80396	32.80069	128.65463	-436.74643	14.21175	124.79018	-313.38300	24.56815	195.04161	-303.36435	78.65730	119.29317	-281.03638	32.17690	201.44559	-251.46100	62.34175	163.65652 
3	0.020	-739.55804	882.69653	166.77475	-748.23376	896.88898	74.27931	-540.77563	843.77240	206.21904	-567.74438	836.71936	-32.96983	-531.89777	548.02118	243.68884	-474.94589	421.24368	211.31122	-465.30215	382.02155	210.57588	-405.69833	395.92798	150.74643	-395.03439	321.02646	143.90154	-400.69189	57.97421	173.85777	-408.59720	33.51133	167.72748	-398.30060	37.06610	102.56401	-436.64386	51.46336	131.57660	-458.55603	35.40963	129.98134	-436.25391	15.15495	125.62311	-310.84055	19.22568	193.93542	-298.54721	72.33649	117.55341	-278.19141	24.80423	199.39420	-246.79593	53.21556	161.39510 
4	0.030	-722.32343	883.17206	167.29027	-731.62677	896.40594	73.52227	-524.33282	844.62018	208.09761	-549.25360	836.59924	-30.15199	-515.13348	550.31848	244.28955	-458.88049	423.92685	213.16388	-449.19785	384.78076	211.93851	-389.27652	396.76123	152.42549	-381.74915	322.07208	144.08192	-397.34097	57.86248	174.25096	-406.59790	34.23956	167.69371	-396.76761	37.12109	102.90245	-433.98596	52.90310	132.23558	-456.55298	37.72870	131.29372	-436.13962	16.34397	126.83055	-309.43503	14.79382	193.82149	-295.64017	68.11936	117.14804	-276.15637	19.26214	198.50801	-244.62225	46.05247	158.68820 
5	0.040	-705.65088	884.35205	167.45760	-715.47638	895.90247	72.58195	-507.94138	846.28058	209.75113	-531.05621	836.63867	-27.06501	-499.94196	552.49982	246.75670	-441.16397	427.73819	215.05484	-432.28702	388.06900	213.63211	-373.79395	397.13522	153.98892	-369.04788	322.55704	144.83179	-394.64774	58.29137	174.66895	-404.82693	34.74036	167.84505	-395.38062	37.31148	103.23998	-431.48474	54.37891	132.85860	-454.56110	40.10923	132.37508	-435.31995	17.68700	127.29853	-309.05966	11.42477	195.13243	-292.60199	63.94322	117.06348	-274.83267	15.46300	199.35387	-242.16377	39.74367	159.15572 
6	0.050	-689.79395	885.74432	167.03189	-699.65137	895.35431	71.52478	-491.75122	848.80756	211.34940	-513.74963	836.91406	-23.92595	-484.34247	554.28339	249.29306	-423.02612	431.18539	216.58023	-415.33801	390.90430	215.18637	-359.39133	396.99399	155.37411	-357.08078	322.18134	146.12708	-392.55344	58.73166	174.84096	-403.37372	34.72126	168.05647	-394.30536	37.26274	103.44354	-429.50531	55.63871	133.13170	-453.09851	41.62375	132.73613	-434.49185	18.46224	127.40189	-308.88016	9.72908	196.09698	-290.53879	61.75204	117.15212	-273.83609	13.54741	200.82957	-239.86426	36.17454	159.96204 
